<svg width="695" height="103" viewBox="0 0 695 103" fill="none" xmlns="http://www.w3.org/2000/svg">
<path d="M1.12 71C0.853333 71 0.666667 70.9467 0.56 70.84C0.453333 70.68 0.4 70.4133 0.4 70.04C0.4 68.2267 1.09333 66.5733 2.48 65.08C3.81333 63.5333 5.25333 62.76 6.8 62.76H8.56C9.73333 61.0533 10.5867 58.3067 11.12 54.52L15.52 28.04C15.9467 25.64 16.7467 23.4267 17.92 21.4C19.0933 19.3733 20.7467 17.4 22.88 15.48C24.8 13.6667 26.8 12.28 28.88 11.32C30.96 10.36 33.2533 9.88 35.76 9.88C36.9867 9.88 38.08 9.98666 39.04 10.2C40 10.36 41.04 10.6267 42.16 11C43.44 11.4267 44.08 11.7733 44.08 12.04C44.08 12.4667 43.68 13.0533 42.88 13.8C42.08 14.4933 41.1467 15.1067 40.08 15.64C39.0133 16.1733 38.16 16.44 37.52 16.44C37.2533 16.44 36.6133 16.28 35.6 15.96C34.5867 15.64 33.52 15.48 32.4 15.48C30.6933 15.48 29.3867 15.8267 28.48 16.52C27.4133 17.32 26.56 18.4933 25.92 20.04C25.28 21.5333 24.72 23.7467 24.24 26.68L19.36 56.52C18.88 59.4 17.9467 61.6133 16.56 63.16V63.24C17.84 63.4533 19.4933 63.64 21.52 63.8C23.6 63.96 25.4667 64.04 27.12 64.04C30.2133 64.04 32.56 63.8 34.16 63.32C35.8133 62.84 37.44 62.04 39.04 60.92C39.5733 60.3867 40.1333 60.12 40.72 60.12C41.1467 60.12 41.36 60.4933 41.36 61.24C41.36 62.68 40.6133 64.1733 39.12 65.72C37.6267 67.2133 35.6 68.4667 33.04 69.48C30.48 70.4933 27.6533 71 24.56 71C23.0133 71 20.2133 70.7867 16.16 70.36C12.4267 69.88 9.52 69.64 7.44 69.64C6.05333 69.64 4.98667 69.7467 4.24 69.96C3.49333 70.12 2.85333 70.3333 2.32 70.6C1.78667 70.8667 1.38667 71 1.12 71ZM69.5181 71.8C66.7448 71.8 64.5581 70.8667 62.9581 69C61.4115 67.08 60.6381 64.4133 60.6381 61C60.6381 57 61.6515 52.8133 63.6781 48.44C65.7581 44.0133 68.3715 40.3333 71.5181 37.4C74.7181 34.4133 77.9181 32.92 81.1181 32.92C82.8781 32.92 84.2648 33.4267 85.2781 34.44C86.3448 35.4533 86.8781 36.92 86.8781 38.84C86.8781 41.24 86.1048 43.72 84.5581 46.28C83.0115 48.7867 80.8781 51.1333 78.1581 53.32C75.4915 55.4533 72.4781 57.1867 69.1181 58.52C69.2781 62.2 70.9048 64.04 73.9981 64.04C75.7048 64.04 77.3048 63.5067 78.7981 62.44C80.3448 61.3733 81.7048 59.9333 82.8781 58.12C83.1448 57.64 83.3848 57.2933 83.5981 57.08C83.8115 56.8133 84.0248 56.68 84.2381 56.68C84.5581 56.68 84.7715 56.7867 84.8781 57C84.9848 57.2133 85.0381 57.5867 85.0381 58.12C85.0381 59.8267 84.2648 61.7733 82.7181 63.96C81.2248 66.1467 79.2781 68.0133 76.8781 69.56C74.4781 71.0533 72.0248 71.8 69.5181 71.8ZM71.1181 51.96C72.2915 51.96 73.4915 51.56 74.7181 50.76C75.9448 49.9067 76.9581 48.8133 77.7581 47.48C78.5581 46.1467 78.9581 44.7067 78.9581 43.16C78.9581 41.24 78.1848 40.28 76.6381 40.28C74.9848 40.28 73.4915 41.32 72.1581 43.4C70.8248 45.48 69.9715 48.2533 69.5981 51.72C69.9181 51.88 70.4248 51.96 71.1181 51.96ZM114.583 71.8C112.823 71.8 111.516 71.24 110.663 70.12C109.809 69 109.383 67.2133 109.383 64.76C109.383 63.2133 109.596 61.16 110.023 58.6L113.303 39.88H106.823C106.236 39.88 105.809 39.8267 105.543 39.72C105.329 39.56 105.223 39.3467 105.223 39.08C105.223 38.6 105.569 37.9333 106.263 37.08C106.956 36.2267 107.729 35.4533 108.583 34.76C109.489 34.0667 110.236 33.72 110.823 33.72H114.503L115.143 29.56C115.516 27.5867 116.609 25.8267 118.423 24.28C120.289 22.7333 122.103 21.96 123.863 21.96C124.289 21.96 124.636 22.04 124.903 22.2C125.169 22.36 125.303 22.6 125.303 22.92C125.303 23.1333 125.036 23.72 124.503 24.68C123.969 25.5867 123.569 26.8667 123.303 28.52L122.423 33.72H129.223C129.863 33.72 130.289 33.7733 130.503 33.88C130.716 33.9333 130.823 34.0933 130.823 34.36C130.823 34.8933 130.449 35.6133 129.703 36.52C128.956 37.3733 128.103 38.1467 127.143 38.84C126.183 39.5333 125.463 39.88 124.983 39.88H121.383L118.183 58.92C117.809 60.7867 117.623 62.2267 117.623 63.24C117.623 63.9867 117.729 64.52 117.943 64.84C118.209 65.1067 118.583 65.24 119.063 65.24C120.823 65.24 122.476 63.8 124.023 60.92C124.183 60.5467 124.343 60.28 124.503 60.12C124.663 59.9067 124.849 59.8 125.063 59.8C125.596 59.8 125.863 60.2533 125.863 61.16C125.863 62.5467 125.329 64.0933 124.263 65.8C123.196 67.4533 121.783 68.8667 120.023 70.04C118.316 71.2133 116.503 71.8 114.583 71.8ZM149.441 35.24C148.801 35.24 148.481 35.0267 148.481 34.6C148.481 34.3333 148.641 34.0133 148.961 33.64C149.281 33.2667 149.654 32.8933 150.081 32.52C152.854 29.4267 154.241 26.4667 154.241 23.64C154.241 22.52 154.054 21.6667 153.681 21.08C153.361 20.44 152.907 19.8267 152.321 19.24C151.947 18.92 151.654 18.6267 151.441 18.36C151.281 18.04 151.201 17.6933 151.201 17.32C151.201 16.3067 151.734 15.3733 152.801 14.52C153.921 13.6133 155.121 13.16 156.401 13.16C157.574 13.16 158.587 13.6667 159.441 14.68C160.294 15.64 160.721 17.1067 160.721 19.08C160.721 21.96 159.841 24.8933 158.081 27.88C156.321 30.8133 154.134 33.0533 151.521 34.6C150.827 35.0267 150.134 35.24 149.441 35.24ZM176.31 71.8C174.55 71.8 173.083 71.48 171.91 70.84C170.737 70.2 169.857 69.4533 169.27 68.6C168.737 67.6933 168.443 66.8667 168.39 66.12C168.23 65.16 168.47 64.1733 169.11 63.16C169.75 62.0933 170.63 61.1333 171.75 60.28C172.443 59.7467 172.923 59.48 173.19 59.48C173.403 59.48 173.59 59.6133 173.75 59.88C173.963 60.0933 174.15 60.3867 174.31 60.76C174.843 62.3067 175.51 63.56 176.31 64.52C177.11 65.48 178.283 65.96 179.83 65.96C181.11 65.96 182.15 65.6133 182.95 64.92C183.803 64.2267 184.23 63.32 184.23 62.2C184.23 61.5067 183.99 60.68 183.51 59.72C183.03 58.7067 182.15 57.24 180.87 55.32L179.19 52.92C177.75 50.7867 176.763 49.2133 176.23 48.2C175.75 47.1333 175.51 46.0667 175.51 45C175.51 42.8667 176.123 40.8667 177.35 39C178.63 37.1333 180.283 35.6667 182.31 34.6C184.39 33.48 186.603 32.92 188.95 32.92C191.03 32.92 192.763 33.3467 194.15 34.2C195.537 35 196.23 36.0933 196.23 37.48C196.23 38.4933 195.777 39.64 194.87 40.92C194.177 41.7733 193.617 42.2 193.19 42.2C192.977 42.2 192.817 42.1467 192.71 42.04C192.603 41.9333 192.47 41.8 192.31 41.64C192.203 41.4267 192.097 41.24 191.99 41.08C190.763 39.32 189.163 38.44 187.19 38.44C185.91 38.44 184.87 38.7333 184.07 39.32C183.27 39.9067 182.87 40.7333 182.87 41.8C182.87 42.6 183.083 43.3733 183.51 44.12C183.937 44.8133 184.603 45.72 185.51 46.84L186.87 48.6L188.71 51C189.777 52.44 190.55 53.7467 191.03 54.92C191.51 56.04 191.75 57.2933 191.75 58.68C191.75 61.24 190.923 63.5333 189.27 65.56C187.67 67.5333 185.643 69.08 183.19 70.2C180.79 71.2667 178.497 71.8 176.31 71.8ZM251.939 102.92C249.593 102.92 247.593 102.333 245.939 101.16C244.286 100.04 243.059 98.6 242.259 96.84C241.406 95.1333 240.979 93.4267 240.979 91.72C240.979 89.8533 241.459 88.2533 242.419 86.92C243.326 85.5867 244.339 84.5733 245.459 83.88C246.579 83.24 247.379 82.92 247.859 82.92C248.126 82.92 248.259 83.1867 248.259 83.72C248.259 88.36 248.819 91.5867 249.939 93.4C251.059 95.2667 253.033 96.2 255.859 96.2C258.099 96.2 259.939 95.64 261.379 94.52C262.819 93.4533 264.099 91.8267 265.219 89.64C266.019 87.9867 266.659 85.9867 267.139 83.64C267.619 81.3467 268.366 76.8133 269.379 70.04C269.806 67.3733 270.179 65.4267 270.499 64.2C270.873 62.92 271.113 62.04 271.219 61.56H271.059C268.979 64.5467 266.633 67 264.019 68.92C261.459 70.84 259.246 71.8 257.379 71.8C255.779 71.8 254.526 71 253.619 69.4C252.713 67.7467 252.259 65.56 252.259 62.84C252.259 58.4133 253.406 53.88 255.699 49.24C257.993 44.5467 261.059 40.6533 264.899 37.56C268.739 34.4667 272.846 32.92 277.219 32.92C278.606 32.92 279.966 33.08 281.299 33.4C282.633 33.72 283.753 34.12 284.659 34.6L283.379 38.92C280.766 47.9333 279.193 54.5467 278.659 58.76C278.179 62.9733 277.913 65.2933 277.859 65.72C277.059 71.3733 276.313 75.7467 275.619 78.84C274.926 81.9867 274.099 84.5467 273.139 86.52C272.233 88.5467 270.979 90.5733 269.379 92.6C266.606 96.0667 263.699 98.6533 260.659 100.36C257.619 102.067 254.713 102.92 251.939 102.92ZM262.099 63.88C263.273 63.88 264.766 62.84 266.579 60.76C268.393 58.68 270.099 56.0667 271.699 52.92C273.299 49.72 274.366 46.5467 274.899 43.4L275.459 40.28C274.179 39.48 272.926 39.08 271.699 39.08C269.993 39.08 268.286 40.1467 266.579 42.28C264.926 44.36 263.539 47.08 262.419 50.44C261.353 53.7467 260.819 57.1333 260.819 60.6C260.819 61.88 260.899 62.76 261.059 63.24C261.219 63.6667 261.566 63.88 262.099 63.88ZM309.449 71.8C306.943 71.8 304.969 70.8933 303.529 69.08C302.089 67.2133 301.369 64.5467 301.369 61.08C301.369 56.76 302.436 52.4133 304.569 48.04C306.756 43.6667 309.476 40.0667 312.729 37.24C316.036 34.36 319.236 32.92 322.329 32.92C324.836 32.92 326.783 33.8533 328.169 35.72C329.556 37.5867 330.249 40.2 330.249 43.56C330.249 47.6667 329.209 51.9333 327.129 56.36C325.103 60.7867 322.463 64.4667 319.209 67.4C316.009 70.3333 312.756 71.8 309.449 71.8ZM313.769 64.84C315.263 64.84 316.623 64.0667 317.849 62.52C319.076 60.92 320.036 58.7867 320.729 56.12C321.423 53.4533 321.769 50.5467 321.769 47.4C321.769 44.7333 321.476 42.8133 320.889 41.64C320.303 40.4667 319.396 39.88 318.169 39.88C316.729 39.88 315.369 40.6267 314.089 42.12C312.863 43.56 311.849 45.56 311.049 48.12C310.303 50.68 309.929 53.5333 309.929 56.68C309.929 62.12 311.209 64.84 313.769 64.84ZM422.461 71.8C420.914 71.8 419.394 70.8667 417.901 69C416.461 67.1333 414.621 64.0933 412.381 59.88L405.101 45.88L402.621 60.76C402.354 62.36 401.741 63.56 400.781 64.36V64.44C401.421 64.76 402.434 64.92 403.821 64.92C404.621 64.92 405.341 64.7867 405.981 64.52C406.674 64.2 407.127 64.04 407.341 64.04C407.767 64.04 407.981 64.28 407.981 64.76C407.981 65.3467 407.687 66.0667 407.101 66.92C405.927 68.5733 404.887 69.6933 403.981 70.28C403.127 70.8667 402.194 71.16 401.181 71.16C400.541 71.16 399.474 70.9467 397.981 70.52C396.487 70.0933 395.287 69.88 394.381 69.88C393.207 69.88 392.114 70.0933 391.101 70.52C390.087 70.9467 389.501 71.16 389.341 71.16C388.967 71.16 388.781 70.84 388.781 70.2C388.781 69.4533 388.994 68.7867 389.421 68.2C389.847 67.56 390.461 66.84 391.261 66.04C392.434 64.9733 393.234 63.9067 393.661 62.84C394.141 61.72 394.594 59.8 395.021 57.08L400.621 22.6C400.301 22.6 399.634 22.52 398.621 22.36C397.661 22.2 396.674 22.12 395.661 22.12C394.114 22.12 392.807 22.3333 391.741 22.76C390.727 23.1867 389.794 23.96 388.941 25.08C388.674 25.4533 388.407 25.7733 388.141 26.04C387.874 26.2533 387.607 26.36 387.341 26.36C386.914 26.36 386.701 26.0933 386.701 25.56C386.701 25.1867 386.727 24.84 386.781 24.52C386.887 24.2 386.941 23.9867 386.941 23.88C387.421 21.48 388.247 19.72 389.421 18.6C390.647 17.4267 392.141 16.68 393.901 16.36C395.661 16.04 398.034 15.88 401.021 15.88H405.501C405.927 15.88 407.021 15.8 408.781 15.64C409.634 15.5333 410.274 15.48 410.701 15.48C409.794 18.52 408.967 22.0933 408.221 26.2L406.861 35L417.261 22.36C420.887 18.04 424.034 14.5733 426.701 11.96C429.367 9.29333 432.141 7.08 435.021 5.32C437.527 3.72 439.821 2.70667 441.901 2.28C444.034 1.8 446.541 1.50666 449.421 1.39999C450.594 1.39999 451.474 1.29333 452.061 1.08C452.434 0.97333 452.754 0.866664 453.021 0.759998C453.287 0.65333 453.501 0.599996 453.661 0.599996C454.141 0.599996 454.381 0.89333 454.381 1.48C454.381 2.54666 453.767 3.61333 452.541 4.68C451.314 5.74666 449.847 6.33333 448.141 6.44C446.221 6.54666 444.541 6.83999 443.101 7.31999C441.661 7.74666 439.927 8.70666 437.901 10.2C434.274 12.8667 430.381 16.7333 426.221 21.8L410.941 40.28L421.181 58.76C422.087 60.4133 422.834 61.5867 423.421 62.28C424.007 62.92 424.674 63.24 425.421 63.24C426.381 63.24 427.261 62.7867 428.061 61.88C428.914 60.9733 429.607 60.04 430.141 59.08C430.514 58.44 430.834 58.0133 431.101 57.8C431.367 57.5333 431.661 57.4 431.981 57.4C432.407 57.4 432.621 57.8 432.621 58.6C432.621 60.0933 432.061 61.9067 430.941 64.04C429.874 66.12 428.541 67.9333 426.941 69.48C425.341 71.0267 423.847 71.8 422.461 71.8ZM452.711 102.92C450.364 102.92 448.364 102.333 446.711 101.16C445.057 99.9867 443.831 98.52 443.031 96.76C442.231 95.0533 441.831 93.3467 441.831 91.64C441.831 89.8267 442.284 88.2533 443.191 86.92C444.044 85.5867 445.031 84.5733 446.151 83.88C447.217 83.24 448.017 82.92 448.551 82.92C448.764 82.92 448.924 83 449.031 83.16C449.137 83.32 449.191 83.6667 449.191 84.2C449.244 88.4667 449.777 91.5333 450.791 93.4C451.857 95.2667 453.804 96.2 456.631 96.2C460.951 96.2 464.124 94.0133 466.151 89.64C466.631 88.5733 467.004 87.4267 467.271 86.2C467.591 84.9733 468.124 82.6267 468.871 79.16L470.711 70.2L472.311 62.68H472.151C470.124 65.56 468.177 67.8 466.311 69.4C464.444 71 462.791 71.8 461.351 71.8C458.417 71.8 457.004 68.4133 457.111 61.64L457.591 43.4C457.644 42.0667 457.564 41.16 457.351 40.68C457.191 40.2 456.844 39.96 456.311 39.96C455.777 39.96 455.271 40.2267 454.791 40.76C454.364 41.24 453.804 42.0667 453.111 43.24C452.577 44.0933 452.204 44.68 451.991 45C451.777 45.2667 451.511 45.4 451.191 45.4C450.871 45.4 450.657 45.32 450.551 45.16C450.444 44.9467 450.391 44.6 450.391 44.12C450.391 42.6267 450.897 41 451.911 39.24C452.977 37.4267 454.311 35.9333 455.911 34.76C457.564 33.5333 459.217 32.92 460.871 32.92C462.577 32.92 463.777 33.64 464.471 35.08C465.164 36.4667 465.511 38.68 465.511 41.72C465.511 43.0533 465.484 44.0933 465.431 44.84L465.031 55C464.924 57.1333 464.871 58.44 464.871 58.92C464.871 60.4133 464.977 61.4267 465.191 61.96C465.404 62.4933 465.724 62.76 466.151 62.76C467.057 62.76 468.124 61.8533 469.351 60.04C470.631 58.2267 471.857 55.88 473.031 53C474.204 50.12 475.137 47.1867 475.831 44.2L476.951 39.48C477.324 37.8267 478.364 36.3333 480.071 35C481.831 33.6133 483.564 32.92 485.271 32.92C486.337 32.92 486.871 33.2667 486.871 33.96C486.871 34.1733 486.764 34.52 486.551 35C486.337 35.4267 486.124 35.96 485.911 36.6C485.217 38.36 484.471 41.1333 483.671 44.92L479.431 65.72L478.631 69.56C477.617 74.52 476.817 78.1467 476.231 80.44C475.644 82.7333 474.897 84.8133 473.991 86.68C473.137 88.6 471.911 90.5733 470.311 92.6C467.644 95.9067 464.764 98.44 461.671 100.2C458.577 102.013 455.591 102.92 452.711 102.92ZM513.399 71.8C510.625 71.8 509.239 69.6933 509.239 65.48C509.239 63.88 509.479 61.64 509.959 58.76L512.439 44.12C512.652 43.0533 512.759 42.1467 512.759 41.4C512.759 40.7067 512.519 40.36 512.039 40.36C511.505 40.36 510.919 40.7333 510.279 41.48C509.692 42.1733 508.865 43.48 507.799 45.4C507.585 45.8267 507.345 46.2267 507.079 46.6C506.812 46.92 506.545 47.08 506.279 47.08C505.745 47.08 505.479 46.6267 505.479 45.72C505.479 44.3333 506.119 42.6267 507.399 40.6C508.679 38.52 510.225 36.7333 512.039 35.24C513.905 33.6933 515.692 32.92 517.399 32.92C518.572 32.92 519.452 33.2933 520.039 34.04C520.679 34.7333 520.999 35.7467 520.999 37.08C520.999 37.4 520.945 37.9333 520.839 38.68L517.399 61.64V62.44C517.399 62.8667 517.452 63.1867 517.559 63.4C517.665 63.56 517.879 63.64 518.199 63.64C519.425 63.64 520.865 62.6533 522.519 60.68C524.225 58.7067 525.799 56.2 527.239 53.16C528.679 50.0667 529.692 46.9467 530.279 43.8L531.079 39.64C531.452 37.6667 532.439 36.0667 534.039 34.84C535.639 33.56 537.399 32.92 539.319 32.92C539.745 32.92 540.039 32.9733 540.199 33.08C540.412 33.1867 540.519 33.4 540.519 33.72C540.519 33.9333 540.385 34.36 540.119 35C539.852 35.64 539.559 36.84 539.239 38.6C538.759 40.4667 537.399 47.4267 535.159 59.48C534.892 60.6533 534.759 61.7467 534.759 62.76C534.759 63.7733 535.079 64.28 535.719 64.28C536.572 64.28 537.292 63.8267 537.879 62.92C538.465 61.96 539.319 60.3333 540.439 58.04C540.705 57.2933 541.025 56.92 541.399 56.92C541.879 56.92 542.119 57.3733 542.119 58.28C542.119 60.04 541.532 61.9867 540.359 64.12C539.239 66.2533 537.772 68.0667 535.959 69.56C534.145 71.0533 532.332 71.8 530.519 71.8C528.012 71.8 526.759 70.2267 526.759 67.08C526.759 65.5867 527.025 63.4267 527.559 60.6L527.399 60.52C525.319 63.6667 523.025 66.3333 520.519 68.52C518.012 70.7067 515.639 71.8 513.399 71.8ZM567.363 71.8C565.603 71.8 564.136 71.48 562.963 70.84C561.79 70.2 560.91 69.4533 560.323 68.6C559.79 67.6933 559.496 66.8667 559.443 66.12C559.283 65.16 559.523 64.1733 560.163 63.16C560.803 62.0933 561.683 61.1333 562.803 60.28C563.496 59.7467 563.976 59.48 564.243 59.48C564.456 59.48 564.643 59.6133 564.803 59.88C565.016 60.0933 565.203 60.3867 565.363 60.76C565.896 62.3067 566.563 63.56 567.363 64.52C568.163 65.48 569.336 65.96 570.883 65.96C572.163 65.96 573.203 65.6133 574.003 64.92C574.856 64.2267 575.283 63.32 575.283 62.2C575.283 61.5067 575.043 60.68 574.563 59.72C574.083 58.7067 573.203 57.24 571.923 55.32L570.243 52.92C568.803 50.7867 567.816 49.2133 567.283 48.2C566.803 47.1333 566.563 46.0667 566.563 45C566.563 42.8667 567.176 40.8667 568.403 39C569.683 37.1333 571.336 35.6667 573.363 34.6C575.443 33.48 577.656 32.92 580.003 32.92C582.083 32.92 583.816 33.3467 585.203 34.2C586.59 35 587.283 36.0933 587.283 37.48C587.283 38.4933 586.83 39.64 585.923 40.92C585.23 41.7733 584.67 42.2 584.243 42.2C584.03 42.2 583.87 42.1467 583.763 42.04C583.656 41.9333 583.523 41.8 583.363 41.64C583.256 41.4267 583.15 41.24 583.043 41.08C581.816 39.32 580.216 38.44 578.243 38.44C576.963 38.44 575.923 38.7333 575.123 39.32C574.323 39.9067 573.923 40.7333 573.923 41.8C573.923 42.6 574.136 43.3733 574.563 44.12C574.99 44.8133 575.656 45.72 576.563 46.84L577.923 48.6L579.763 51C580.83 52.44 581.603 53.7467 582.083 54.92C582.563 56.04 582.803 57.2933 582.803 58.68C582.803 61.24 581.976 63.5333 580.323 65.56C578.723 67.5333 576.696 69.08 574.243 70.2C571.843 71.2667 569.55 71.8 567.363 71.8ZM605.408 71.8C604.555 71.8 604.128 71.5333 604.128 71C604.128 70.7333 604.315 69.9867 604.688 68.76C605.221 67.2133 605.568 66.04 605.728 65.24C606.261 62.4133 607.221 56.44 608.608 47.32L610.688 34.36C611.755 28.0133 613.088 22.6533 614.688 18.28C616.341 13.9067 618.395 10.36 620.848 7.64C622.768 5.50666 624.608 4.09333 626.368 3.4C628.181 2.65333 630.448 2.06666 633.168 1.64C634.875 1.37333 635.995 1.18666 636.528 1.08C637.061 0.919998 637.408 0.839997 637.568 0.839997C637.995 0.839997 638.208 1.13333 638.208 1.72C638.208 2.2 637.995 2.78666 637.568 3.48C637.195 4.12 636.715 4.73333 636.128 5.32C635.275 6.12 633.995 6.52 632.288 6.52C630.635 6.68 629.195 7.13333 627.968 7.88C626.741 8.62666 625.568 9.82666 624.448 11.48C622.901 13.8267 621.675 16.8667 620.768 20.6C619.861 24.28 618.928 29.7467 617.968 37L616.928 44.68H617.008C622.608 36.84 627.435 32.92 631.488 32.92C632.821 32.92 633.835 33.3733 634.528 34.28C635.221 35.1333 635.568 36.5733 635.568 38.6C635.568 40.1467 635.328 42.1733 634.848 44.68C633.781 50.2267 633.008 54.1467 632.528 56.44C631.835 60.2267 631.488 62.3067 631.488 62.68C631.488 63.7467 631.835 64.28 632.528 64.28C633.328 64.28 634.075 63.7733 634.768 62.76C635.461 61.6933 636.235 60.12 637.088 58.04C637.355 57.2933 637.675 56.92 638.048 56.92C638.528 56.92 638.768 57.4267 638.768 58.44C638.768 60.3067 638.181 62.3067 637.008 64.44C635.835 66.52 634.341 68.28 632.528 69.72C630.768 71.1067 629.008 71.8 627.248 71.8C624.581 71.8 623.248 70.04 623.248 66.52C623.248 65.1333 623.408 63.4533 623.728 61.48C624.048 59.5067 624.528 56.9733 625.168 53.88C625.595 51.8 625.968 49.72 626.288 47.64C626.661 45.56 626.875 43.88 626.928 42.6V42.12C626.928 41.16 626.635 40.68 626.048 40.68C625.141 40.68 623.888 41.64 622.288 43.56C620.741 45.4267 619.248 47.7733 617.808 50.6C616.368 53.4267 615.408 56.1467 614.928 58.76L613.648 65.24C613.275 66.84 612.208 68.3333 610.448 69.72C608.741 71.1067 607.061 71.8 605.408 71.8ZM665.952 71.8C663.179 71.8 661.792 69.6933 661.792 65.48C661.792 63.88 662.032 61.64 662.512 58.76L664.992 44.12C665.205 43.0533 665.312 42.1467 665.312 41.4C665.312 40.7067 665.072 40.36 664.592 40.36C664.059 40.36 663.472 40.7333 662.832 41.48C662.245 42.1733 661.419 43.48 660.352 45.4C660.139 45.8267 659.899 46.2267 659.632 46.6C659.365 46.92 659.099 47.08 658.832 47.08C658.299 47.08 658.032 46.6267 658.032 45.72C658.032 44.3333 658.672 42.6267 659.952 40.6C661.232 38.52 662.779 36.7333 664.592 35.24C666.459 33.6933 668.245 32.92 669.952 32.92C671.125 32.92 672.005 33.2933 672.592 34.04C673.232 34.7333 673.552 35.7467 673.552 37.08C673.552 37.4 673.499 37.9333 673.392 38.68L669.952 61.64V62.44C669.952 62.8667 670.005 63.1867 670.112 63.4C670.219 63.56 670.432 63.64 670.752 63.64C671.979 63.64 673.419 62.6533 675.072 60.68C676.779 58.7067 678.352 56.2 679.792 53.16C681.232 50.0667 682.245 46.9467 682.832 43.8L683.632 39.64C684.005 37.6667 684.992 36.0667 686.592 34.84C688.192 33.56 689.952 32.92 691.872 32.92C692.299 32.92 692.592 32.9733 692.752 33.08C692.965 33.1867 693.072 33.4 693.072 33.72C693.072 33.9333 692.939 34.36 692.672 35C692.405 35.64 692.112 36.84 691.792 38.6C691.312 40.4667 689.952 47.4267 687.712 59.48C687.445 60.6533 687.312 61.7467 687.312 62.76C687.312 63.7733 687.632 64.28 688.272 64.28C689.125 64.28 689.845 63.8267 690.432 62.92C691.019 61.96 691.872 60.3333 692.992 58.04C693.259 57.2933 693.579 56.92 693.952 56.92C694.432 56.92 694.672 57.3733 694.672 58.28C694.672 60.04 694.085 61.9867 692.912 64.12C691.792 66.2533 690.325 68.0667 688.512 69.56C686.699 71.0533 684.885 71.8 683.072 71.8C680.565 71.8 679.312 70.2267 679.312 67.08C679.312 65.5867 679.579 63.4267 680.112 60.6L679.952 60.52C677.872 63.6667 675.579 66.3333 673.072 68.52C670.565 70.7067 668.192 71.8 665.952 71.8Z" fill="#FAF0CA"/>
</svg>
